<?xml version="1.0" encoding="UTF-8"?>
<svg version="1.1" xmlns="http://www.w3.org/2000/svg" width="819" height="819">
<path d="M0 0 C1.25968597 0.00182281 2.51937195 0.00364563 3.81723022 0.00552368 C22.06639007 0.05000591 39.94903803 0.42693605 58 3.3125 C59.12857422 3.48410645 60.25714844 3.65571289 61.41992188 3.83251953 C117.16883895 12.45372437 171.33381761 32.00384107 219 62.3125 C219.9895166 62.93970947 219.9895166 62.93970947 220.99902344 63.57958984 C238.79676766 74.94909997 255.83056078 87.72677798 271.41796875 101.9765625 C272.82446183 103.24900254 274.23708262 104.5152703 275.6784668 105.74804688 C281.34459804 110.60410918 286.66194529 115.78828208 291.93579102 121.06298828 C293.42641615 122.55143237 294.92487017 124.03167277 296.42382812 125.51171875 C302.00951668 131.06569104 307.18077119 136.74886893 312.07763672 142.92871094 C313.86758052 145.14829581 315.73400802 147.2369669 317.6875 149.3125 C365.86734806 202.97388766 395.19423938 277.34653922 406.25 347.6875 C406.40114258 348.6472876 406.55228516 349.6070752 406.70800781 350.59594727 C407.18599221 353.83043425 407.60423862 357.06686333 408 360.3125 C408.08720306 361.02168579 408.17440613 361.73087158 408.26425171 362.46154785 C410.12481357 378.0736528 410.35964539 393.60352796 410.3125 409.3125 C410.30976578 411.20202896 410.30976578 411.20202896 410.30697632 413.12973022 C410.26249409 431.37889007 409.88556395 449.26153803 407 467.3125 C406.74259033 469.00536133 406.74259033 469.00536133 406.47998047 470.73242188 C397.85877563 526.48133895 378.30865893 580.64631761 348 628.3125 C347.58186035 628.97217773 347.1637207 629.63185547 346.73291016 630.31152344 C335.36340003 648.10926766 322.58572202 665.14306078 308.3359375 680.73046875 C307.06349746 682.13696183 305.7972297 683.54958262 304.56445312 684.9909668 C299.70839082 690.65709804 294.52421792 695.97444529 289.24951172 701.24829102 C287.76106763 702.73891615 286.28082723 704.23737017 284.80078125 705.73632812 C279.24680896 711.32201668 273.56363107 716.49327119 267.38378906 721.39013672 C265.16420419 723.18008052 263.0755331 725.04650802 261 727 C207.33861234 775.17984806 132.96596078 804.50673938 62.625 815.5625 C61.6652124 815.71364258 60.7054248 815.86478516 59.71655273 816.02050781 C56.48206575 816.49849221 53.24563667 816.91673862 50 817.3125 C49.29081421 817.39970306 48.58162842 817.48690613 47.85095215 817.57675171 C32.2388472 819.43731357 16.70897204 819.67214539 1 819.625 C-0.25968597 819.62317719 -1.51937195 819.62135437 -2.81723022 819.61947632 C-21.06639007 819.57499409 -38.94903803 819.19806395 -57 816.3125 C-58.69286133 816.05509033 -58.69286133 816.05509033 -60.41992188 815.79248047 C-116.16883895 807.17127563 -170.33381761 787.62115893 -218 757.3125 C-218.65967773 756.89436035 -219.31935547 756.4762207 -219.99902344 756.04541016 C-237.79676766 744.67590003 -254.83056078 731.89822202 -270.41796875 717.6484375 C-271.82446183 716.37599746 -273.23708262 715.1097297 -274.6784668 713.87695312 C-280.34459804 709.02089082 -285.66194529 703.83671792 -290.93579102 698.56201172 C-292.42641615 697.07356763 -293.92487017 695.59332723 -295.42382812 694.11328125 C-301.00951668 688.55930896 -306.18077119 682.87613107 -311.07763672 676.69628906 C-312.86758052 674.47670419 -314.73400802 672.3880331 -316.6875 670.3125 C-364.86734806 616.65111234 -394.19423938 542.27846078 -405.25 471.9375 C-405.47671387 470.4978186 -405.47671387 470.4978186 -405.70800781 469.02905273 C-406.18599221 465.79456575 -406.60423862 462.55813667 -407 459.3125 C-407.08720306 458.60331421 -407.17440613 457.89412842 -407.26425171 457.16345215 C-409.12481357 441.5513472 -409.35964539 426.02147204 -409.3125 410.3125 C-409.31067719 409.05281403 -409.30885437 407.79312805 -409.30697632 406.49526978 C-409.26249409 388.24610993 -408.88556395 370.36346197 -406 352.3125 C-405.82839355 351.18392578 -405.65678711 350.05535156 -405.47998047 348.89257812 C-396.85877563 293.14366105 -377.30865893 238.97868239 -347 191.3125 C-346.58186035 190.65282227 -346.1637207 189.99314453 -345.73291016 189.31347656 C-334.36340003 171.51573234 -321.58572202 154.48193922 -307.3359375 138.89453125 C-306.06349746 137.48803817 -304.7972297 136.07541738 -303.56445312 134.6340332 C-298.70839082 128.96790196 -293.52421792 123.65055471 -288.24951172 118.37670898 C-286.76106763 116.88608385 -285.28082723 115.38762983 -283.80078125 113.88867188 C-278.24680896 108.30298332 -272.56363107 103.13172881 -266.38378906 98.23486328 C-264.16420419 96.44491948 -262.0755331 94.57849198 -260 92.625 C-206.33861234 44.44515194 -131.96596078 15.11826062 -61.625 4.0625 C-60.1853186 3.83578613 -60.1853186 3.83578613 -58.71655273 3.60449219 C-55.48206575 3.12650779 -52.24563667 2.70826138 -49 2.3125 C-48.29081421 2.22529694 -47.58162842 2.13809387 -46.85095215 2.04824829 C-31.2388472 0.18768643 -15.70897204 -0.04714539 0 0 Z " fill="#080909" transform="translate(409,-0.3125)"/>
<path d="M0 0 C0.86173828 0.35304199 1.72347656 0.70608398 2.61132812 1.06982422 C24.14967417 10.14580482 44.14086944 23.2094271 61.6875 38.625 C62.58726562 39.41519531 63.48703125 40.20539063 64.4140625 41.01953125 C67.55278433 43.84099683 70.63131701 46.71475593 73.6875 49.625 C74.66710693 50.5536084 74.66710693 50.5536084 75.66650391 51.50097656 C99.41874706 74.16680414 115.21990136 98.92570436 126 129.8125 C126.67103572 131.71570953 127.34291849 133.61862062 128.015625 135.52124023 C129.33102156 139.24377303 130.64305338 142.96745784 131.95166016 146.69238281 C134.00491552 152.53325168 136.0871949 158.36339134 138.1875 164.1875 C138.51983643 165.11143555 138.85217285 166.03537109 139.19458008 166.98730469 C141.52340908 173.44532044 143.8833183 179.89172624 146.25 186.3359375 C152.87560271 204.38028797 159.4563105 222.42601079 165.65917969 240.62109375 C166.73417514 243.76134636 167.82229521 246.89679082 168.9140625 250.03125 C172.90750236 261.49802932 176.84013884 272.98339062 180.6875 284.5 C181.07357422 285.65363037 181.45964844 286.80726074 181.85742188 287.99584961 C182.21384766 289.06714111 182.57027344 290.13843262 182.9375 291.2421875 C183.25203125 292.18690918 183.5665625 293.13163086 183.890625 294.10498047 C189.84754674 312.94301545 178.86831391 332.63655975 170.39379883 349.18676758 C154.66794484 379.27232346 129.85244135 407.68191548 103.96484375 429.62890625 C100.68812377 432.50095412 97.54373496 435.50983507 94.375 438.5 C89.18226441 443.3858863 83.88044035 448.02239687 78.30859375 452.4765625 C74.50175049 455.59692583 70.89800264 458.92532996 67.2734375 462.25390625 C64.90967957 464.42127946 62.5293146 466.56528007 60.125 468.6875 C59.50496094 469.23535156 58.88492187 469.78320312 58.24609375 470.34765625 C56.6875 471.625 56.6875 471.625 54.6875 472.625 C56.14583834 469.29699712 57.99981354 467.05828915 60.5 464.4375 C66.50141626 457.8869975 71.79460464 450.83168035 77.11474609 443.72412109 C78.51276845 441.85821047 79.92099071 440.00059642 81.33203125 438.14453125 C101.51223205 411.36180659 118.62549864 382.55104175 133.6875 352.625 C134.07663574 351.8613916 134.46577148 351.0977832 134.86669922 350.31103516 C143.58029632 333.12018129 153.66984586 311.9901018 148.1875 292.5 C140.82455709 270.51451082 126.74432993 250.19381916 110.18383789 234.13452148 C108.6875 232.625 108.6875 232.625 106.75 230.125 C104.43649129 227.32074702 101.90262374 225.11843875 99.140625 222.765625 C97.29999363 221.15946896 95.50987731 219.53484902 93.734375 217.859375 C86.39340601 210.93212462 78.83130967 204.58645034 70.6875 198.625 C70.12949707 198.21540039 69.57149414 197.80580078 68.99658203 197.38378906 C64.93003797 194.41132519 60.82124464 191.5031098 56.6875 188.625 C56.11338379 188.22313477 55.53926758 187.82126953 54.94775391 187.40722656 C39.69092238 176.78521931 23.44972759 167.62644476 6.68945312 159.60009766 C4.5107582 158.53891381 2.35775806 157.43338397 0.203125 156.32421875 C-1.30170274 155.56955311 -2.80690228 154.81562831 -4.3125 154.0625 C-4.99473633 153.70317383 -5.67697266 153.34384766 -6.37988281 152.97363281 C-11.20111856 150.61139249 -15.06404544 150.14448844 -20.3125 151.625 C-23.27030878 152.68399043 -26.0601117 153.98357701 -28.875 155.375 C-29.68582031 155.76840576 -30.49664062 156.16181152 -31.33203125 156.56713867 C-58.50627169 169.98184657 -84.94198013 186.28115754 -108.3125 205.625 C-109.17875 206.31851563 -110.045 207.01203125 -110.9375 207.7265625 C-126.12591461 219.93770265 -140.22570869 233.3226661 -152.3125 248.625 C-153.27542969 249.75228516 -153.27542969 249.75228516 -154.2578125 250.90234375 C-167.78171521 266.9174917 -179.71642121 286.93958626 -178.52587891 308.45263672 C-177.1291671 322.67224964 -170.43418002 335.9452288 -164.3125 348.625 C-163.90789551 349.4804541 -163.50329102 350.3359082 -163.08642578 351.21728516 C-152.94035083 372.63322184 -140.83206975 393.16537324 -127.3125 412.625 C-126.19681641 414.25501953 -126.19681641 414.25501953 -125.05859375 415.91796875 C-122.82719865 419.16610388 -120.57497445 422.3984471 -118.3125 425.625 C-117.92094727 426.18541992 -117.52939453 426.74583984 -117.12597656 427.32324219 C-108.09713389 440.22262822 -98.34105405 452.49168769 -88.3125 464.625 C-88.6425 465.285 -88.9725 465.945 -89.3125 466.625 C-95.94006903 461.31781707 -102.30717148 455.85530275 -108.55078125 450.1015625 C-111.29902914 447.63707995 -114.12170868 445.31057317 -117 443 C-120.98086557 439.78816528 -124.64804211 436.45171206 -128.16796875 432.7421875 C-129.96530264 430.96777043 -131.79156109 429.3478072 -133.7109375 427.7109375 C-139.37720901 422.78835186 -144.65271556 417.47081332 -149.95727539 412.16552734 C-151.73760252 410.38738228 -153.52578377 408.61740439 -155.31445312 406.84765625 C-162.11136591 400.08406138 -168.40165805 393.18797008 -174.3125 385.625 C-175.19266201 384.54057086 -176.07392033 383.45702903 -176.95703125 382.375 C-187.87565226 368.52507353 -196.82779382 353.57371971 -204.3125 337.625 C-204.78171875 336.67625 -205.2509375 335.7275 -205.734375 334.75 C-208.29134687 329.44665093 -210.30261034 324.02779472 -212.125 318.4375 C-212.34438232 317.78394531 -212.56376465 317.13039063 -212.78979492 316.45703125 C-218.45361138 298.31086759 -207.18569711 277.029308 -201.18395996 260.0871582 C-200.23168901 257.39668264 -199.28212995 254.70525982 -198.33300781 252.01367188 C-188.40299717 223.85712147 -178.4006311 195.72966347 -168.10687256 167.70385742 C-164.90193354 158.97767368 -161.71438876 150.24550591 -158.5625 141.5 C-158.19527832 140.48317139 -157.82805664 139.46634277 -157.44970703 138.41870117 C-155.73969543 133.66622644 -154.0587853 128.90727053 -152.4453125 124.12109375 C-146.89124725 107.67556758 -139.58570078 93.635197 -129.3125 79.625 C-128.87953613 79.03219238 -128.44657227 78.43938477 -128.00048828 77.82861328 C-117.66725225 63.83116517 -105.59145692 50.86104047 -92.3125 39.625 C-91.45269531 38.86574219 -90.59289062 38.10648438 -89.70703125 37.32421875 C-67.85263618 18.42393502 -29.80153183 -12.31740706 0 0 Z " fill="#5F00C1" transform="translate(418.3125,74.375)"/>
<path d="M0 0 C4.5669213 4.20973193 7.93636624 8.95096316 11.4375 14.0625 C12.68346795 15.86206628 13.92956537 17.66154291 15.17578125 19.4609375 C16.12638428 20.83910645 16.12638428 20.83910645 17.09619141 22.24511719 C20.0867596 26.57258212 23.10587659 30.87993142 26.125 35.1875 C26.70620605 36.01757568 27.28741211 36.84765137 27.88623047 37.70288086 C33.56881912 45.8175665 39.26100884 53.92507441 45 62 C45.54043945 62.76119141 46.08087891 63.52238281 46.63769531 64.30664062 C53.14441309 73.45305412 59.7152833 82.44997837 67 91 C67.99103396 92.17695827 68.98190926 93.35405015 69.97265625 94.53125 C75.10023497 100.5950999 80.24911447 106.51051835 86 112 C85.67 112.66 85.34 113.32 85 114 C84.22027832 113.60228394 84.22027832 113.60228394 83.42480469 113.1965332 C70.73280825 106.74188005 57.92488924 100.59591112 44.99194336 94.63916016 C38.08468851 91.45148995 31.23225693 88.19162205 24.45288086 84.7409668 C19.90951832 82.43302395 15.3115879 80.26595799 10.6875 78.125 C4.35311229 75.17757662 -1.87558618 72.05807431 -8.0625 68.8125 C-8.8356958 68.40854004 -9.6088916 68.00458008 -10.40551758 67.58837891 C-25.17444515 59.76812381 -25.17444515 59.76812381 -28 55 C-15.25786152 88.80828703 10.24220085 118.07526413 34.5390625 144.3203125 C37.44266018 147.48200775 40.23753895 150.71491118 43 154 C27.13145948 148.11580746 12.3564688 138.28208759 -2.13525391 129.69335938 C-4.72278649 128.16386167 -7.31851967 126.64974222 -9.91796875 125.140625 C-31.50145739 112.52045341 -52.30384326 98.52132403 -71.97265625 83.08984375 C-77.20182191 78.5786408 -77.20182191 78.5786408 -83.62109375 77.09375 C-86.42754031 78.1628725 -87.31583011 79.07795109 -89.0625 81.5 C-89.65933594 82.31597656 -90.25617188 83.13195312 -90.87109375 83.97265625 C-91.92490234 85.47119141 -91.92490234 85.47119141 -93 87 C-93.88645011 88.24888864 -94.77318906 89.49757229 -95.66015625 90.74609375 C-97.69599239 93.61999411 -99.72285829 96.50003051 -101.74609375 99.3828125 C-107.08600316 106.977997 -112.52970554 114.49835502 -118 122 C-118.40814941 122.56025879 -118.81629883 123.12051758 -119.23681641 123.69775391 C-124.89008522 131.42903397 -130.89541955 138.85077877 -136.95703125 146.26171875 C-140.3787277 150.45083924 -143.71656578 154.70168611 -147 159 C-147.66 158.34 -148.32 157.68 -149 157 C-148.75878418 156.41210693 -148.51756836 155.82421387 -148.26904297 155.21850586 C-147.13702734 152.45844397 -146.00595699 149.69799584 -144.875 146.9375 C-144.2564917 145.42917603 -144.2564917 145.42917603 -143.62548828 143.89038086 C-141.33513641 138.29596612 -139.08277709 132.68993183 -136.875 127.0625 C-134.70074191 121.60600571 -132.33114094 116.26839559 -129.80932617 110.96606445 C-128.12526514 107.42357218 -126.48726216 103.86719692 -124.90625 100.27734375 C-121.10977957 91.66052167 -117.17966399 83.15727265 -112.8125 74.8125 C-112.4208667 74.05936523 -112.0292334 73.30623047 -111.62573242 72.53027344 C-110.45569039 70.32950918 -109.23703806 68.16372468 -108 66 C-107.5879834 65.23196045 -107.1759668 64.4639209 -106.75146484 63.67260742 C-102.80018124 56.92997875 -97.896168 54.0915542 -91 50.6875 C-88.83035803 49.56582176 -86.66109492 48.44341044 -84.4921875 47.3203125 C-83.40131836 46.76504883 -82.31044922 46.20978516 -81.18652344 45.63769531 C-76.44918684 43.20296853 -71.78887318 40.6343248 -67.125 38.0625 C-61.35741478 34.8997148 -55.57616135 31.76777546 -49.7578125 28.69921875 C-34.92239868 20.85064021 -20.60856873 12.43789942 -6.42822266 3.47363281 C-4.32397566 2.19661342 -2.2201778 1.05870487 0 0 Z " fill="#5F00C1" transform="translate(213,473)"/>
<path d="M0 0 C4.11581331 1.25945092 7.36892968 3.54659583 10.91796875 5.94140625 C27.68050134 16.87612842 45.4022235 26.1752297 63.03466797 35.61425781 C73.24008978 41.09033781 83.37534316 46.70203432 93.37890625 52.54003906 C95.57580972 53.81882663 95.57580972 53.81882663 97.62890625 54.64746094 C104.11668777 57.5297259 106.32116164 63.71818441 109.29296875 69.81640625 C109.90280127 71.03757228 110.51374565 72.25818363 111.12573242 73.47827148 C112.70071887 76.6360318 114.2463028 79.80720054 115.78131104 82.98455811 C116.615886 84.7088025 117.45879286 86.42900696 118.30224609 88.14892578 C126.66916281 105.27173599 133.87020588 122.82250989 140.93286133 140.51391602 C141.2839093 141.39304657 141.63495728 142.27217712 141.99664307 143.177948 C142.65137947 144.82055399 143.30424866 146.46390615 143.95477295 148.10818481 C145.82462479 152.81018427 147.83182893 157.40740235 150.01902771 161.97163391 C150.23317825 162.58040878 150.4473288 163.18918365 150.66796875 163.81640625 C150.33796875 164.47640625 150.00796875 165.13640625 149.66796875 165.81640625 C134.25136859 143.69048774 134.25136859 143.69048774 128.04296875 134.62890625 C123.41498475 127.87499937 118.72000156 121.16926822 114.01269531 114.47045898 C110.45168491 109.39382401 106.93923138 104.28769472 103.46240234 99.15307617 C96.03511267 86.11844321 96.03511267 86.11844321 85.31835938 77.06176758 C82.05200758 76.75938332 81.10199958 77.36907734 78.48046875 79.2734375 C77.70058594 79.83240723 76.92070313 80.39137695 76.1171875 80.96728516 C75.30894531 81.57749512 74.50070312 82.18770508 73.66796875 82.81640625 C72.87003906 83.41759277 72.07210937 84.0187793 71.25 84.63818359 C68.7107513 86.57844815 66.18933875 88.54048053 63.66796875 90.50390625 C55.36394487 96.88965768 46.9295898 102.816906 38.03369141 108.34130859 C35.37364266 109.99992722 32.72982064 111.68292607 30.0859375 113.3671875 C17.46794632 121.37269369 4.65810573 128.92701032 -8.40283203 136.18408203 C-13.55973878 139.05781753 -18.69447665 141.9707634 -23.83203125 144.87890625 C-29.40269767 148.02608461 -29.40269767 148.02608461 -31.9765625 149.47314453 C-33.48468295 150.33318586 -34.98325743 151.21032665 -36.46875 152.10888672 C-38.05810293 153.06618512 -39.69105577 153.95057577 -41.33203125 154.81640625 C-41.99203125 154.48640625 -42.65203125 154.15640625 -43.33203125 153.81640625 C-42.73777344 153.3059375 -42.14351562 152.79546875 -41.53125 152.26953125 C-13.26311909 127.47446775 12.60708206 92.35878118 27.66796875 57.81640625 C27.66796875 57.15640625 27.66796875 56.49640625 27.66796875 55.81640625 C26.72308594 56.69296875 25.77820313 57.56953125 24.8046875 58.47265625 C20.41339263 62.2256368 15.62032781 64.7311066 10.48046875 67.31640625 C8.99824829 68.07473755 8.99824829 68.07473755 7.48608398 68.84838867 C4.21862848 70.51495071 0.94356474 72.1659085 -2.33203125 73.81640625 C-4.11710927 74.72343612 -5.90218416 75.63047227 -7.68699646 76.5380249 C-29.67260719 87.70577645 -29.67260719 87.70577645 -40.95410156 92.484375 C-45.39933466 94.37413593 -49.71343562 96.44695846 -54.01953125 98.62890625 C-60.55534058 101.93478101 -67.11413971 105.1881104 -73.70703125 108.37890625 C-74.62959717 108.83305908 -75.55216309 109.28721191 -76.50268555 109.75512695 C-77.361604 110.16851318 -78.22052246 110.58189941 -79.10546875 111.0078125 C-80.25668213 111.56770874 -80.25668213 111.56770874 -81.43115234 112.13891602 C-82.05844238 112.36248779 -82.68573242 112.58605957 -83.33203125 112.81640625 C-83.99203125 112.48640625 -84.65203125 112.15640625 -85.33203125 111.81640625 C-84.6771875 111.11257813 -84.02234375 110.40875 -83.34765625 109.68359375 C-67.0585213 92.10075871 -52.88795585 73.41225804 -39.12890625 53.796875 C-36.55082342 50.12160397 -33.9463822 46.46593138 -31.33203125 42.81640625 C-29.66444606 40.48372837 -27.99810799 38.15016168 -26.33203125 35.81640625 C-25.86829102 35.16736328 -25.40455078 34.51832031 -24.92675781 33.84960938 C-23.43384075 31.75733149 -21.94489686 29.66227886 -20.45703125 27.56640625 C-19.95937256 26.86845947 -19.46171387 26.1705127 -18.94897461 25.45141602 C-16.2259389 21.60380988 -13.60428634 17.7144204 -11.078125 13.734375 C-10.27834229 12.48672363 -10.27834229 12.48672363 -9.46240234 11.21386719 C-8.43574107 9.60305451 -7.42369097 7.98281317 -6.42822266 6.35253906 C-3.04739975 1.06684514 -3.04739975 1.06684514 0 0 Z " fill="#5F00C1" transform="translate(594.33203125,473.18359375)"/>
<path d="M0 0 C4 0 4 0 6 1 C-1.78067501 8.31061833 -9.66293451 15.32489855 -18 22 C-20.00780863 23.65760945 -22.00424737 25.32788293 -24 27 C-22.49199261 23.52364612 -20.45398105 21.13370098 -17.875 18.375 C-13.91119206 14.07927899 -10.31262576 9.62136921 -6.82421875 4.93359375 C-4.81867816 2.80780662 -3.79039316 2.52952024 -1 2 C-0.67 1.34 -0.34 0.68 0 0 Z " fill="#6900D0" transform="translate(497,520)"/>
<path d="M0 0 C2.92984235 1.33748429 5.14904304 2.8436297 7.53125 5.00390625 C8.49998047 5.86725586 8.49998047 5.86725586 9.48828125 6.74804688 C10.83137158 7.95943611 12.17251522 9.17298712 13.51171875 10.38867188 C14.15753906 10.96294922 14.80335938 11.53722656 15.46875 12.12890625 C16.34176758 12.91890015 16.34176758 12.91890015 17.23242188 13.72485352 C19.16744368 15.12079535 20.69934707 15.47185525 23 16 C24.921875 17.84765625 24.921875 17.84765625 26.75 20.0625 C27.36359375 20.79597656 27.9771875 21.52945313 28.609375 22.28515625 C29.06828125 22.85105469 29.5271875 23.41695312 30 24 C29.67 24.66 29.34 25.32 29 26 C22.30074031 20.63540907 15.84063795 15.1198021 9.52734375 9.3046875 C7.32646227 7.2977013 5.09164094 5.35436301 2.8125 3.4375 C1.884375 2.633125 0.95625 1.82875 0 1 C0 0.67 0 0.34 0 0 Z " fill="#6B00D1" transform="translate(300,515)"/>
<path d="M0 0 C4.91935902 4.11619836 9.52647956 8.40410362 14 13 C13.01 13.495 13.01 13.495 12 14 C10.13647461 13.22729492 10.13647461 13.22729492 7.90234375 11.98046875 C7.10119141 11.53509766 6.30003906 11.08972656 5.47460938 10.63085938 C4.63736328 10.15455078 3.80011719 9.67824219 2.9375 9.1875 C2.09638672 8.72279297 1.25527344 8.25808594 0.38867188 7.77929688 C-5.8671131 4.26577381 -5.8671131 4.26577381 -7 2 C-6.071875 2.33 -5.14375 2.66 -4.1875 3 C-1.07970709 4.14967004 -1.07970709 4.14967004 2 4 C1.34 2.68 0.68 1.36 0 0 Z " fill="#6900D4" transform="translate(242,613)"/>
<path d="M0 0 C5.91969002 1.75990784 11.41634992 4.39694605 17 7 C16.01 6.01 15.02 5.02 14 4 C14.33 3.34 14.66 2.68 15 2 C19.455 6.455 19.455 6.455 24 11 C23.67 11.66 23.34 12.32 23 13 C19.34934247 11.21804142 15.70536201 9.42283443 12.0625 7.625 C11.02158203 7.11710938 9.98066406 6.60921875 8.90820312 6.0859375 C7.91884766 5.59609375 6.92949219 5.10625 5.91015625 4.6015625 C4.99371338 4.15119629 4.07727051 3.70083008 3.13305664 3.23681641 C1 2 1 2 0 0 Z " fill="#6D00DA" transform="translate(275,574)"/>
<path d="M0 0 C0.33 0.66 0.66 1.32 1 2 C-0.375 4 -0.375 4 -2 6 C-2.66 6 -3.32 6 -4 6 C-4 7.65 -4 9.3 -4 11 C-5.96466413 12.06775224 -7.96855359 13.06553465 -10 14 C-10.66 13.67 -11.32 13.34 -12 13 C-10.18777319 11.02058257 -8.37523172 9.04145495 -6.5625 7.0625 C-6.04623047 6.49853516 -5.52996094 5.93457031 -4.99804688 5.35351562 C-1.11328125 1.11328125 -1.11328125 1.11328125 0 0 Z " fill="#6700CF" transform="translate(521,572)"/>
<path d="M0 0 C2.52259061 1.97420135 2.9929808 2.96745642 3.6875 6.1875 C3.790625 7.115625 3.89375 8.04375 4 9 C3.01 8.34 2.02 7.68 1 7 C1.33 7.763125 1.66 8.52625 2 9.3125 C3 12 3 12 3 15 C1.99421411 13.71283353 0.99553202 12.42011342 0 11.125 C-0.556875 10.40570312 -1.11375 9.68640625 -1.6875 8.9453125 C-3 7 -3 7 -3 5 C-1.68 4.67 -0.36 4.34 1 4 C0.67 2.68 0.34 1.36 0 0 Z " fill="#6800D2" transform="translate(733,612)"/>
<path d="M0 0 C0.33 0.66 0.66 1.32 1 2 C0.67 2.99 0.34 3.98 0 5 C0.66 5 1.32 5 2 5 C0.55746343 8.36591866 -1.33264727 10.51047079 -4 13 C-5 11 -5 11 -4.2578125 8.65234375 C-3.88398437 7.75644531 -3.51015625 6.86054687 -3.125 5.9375 C-2.75632812 5.03902344 -2.38765625 4.14054688 -2.0078125 3.21484375 C-1 1 -1 1 0 0 Z " fill="#6800CE" transform="translate(69,619)"/>
<path d="M0 0 C0 0.99 0 1.98 0 3 C-0.66 3.66 -1.32 4.32 -2 5 C-2 5.99 -2 6.98 -2 8 C-5.6125362 9.84827434 -9.2089881 11.55049545 -13 13 C-8.66666667 8.66666667 -4.33333333 4.33333333 0 0 Z " fill="#6A00D5" transform="translate(564,615)"/>
<path d="M0 0 C0.33 0.66 0.66 1.32 1 2 C0.030625 2.2475 -0.93875 2.495 -1.9375 2.75 C-2.948125 3.1625 -3.95875 3.575 -5 4 C-5.73323796 6.01508358 -5.73323796 6.01508358 -6 8 C-6.99 8.33 -7.98 8.66 -9 9 C-9.70381157 10.98723268 -10.3711811 12.98777953 -11 15 C-11.99 15.495 -11.99 15.495 -13 16 C-11.24999075 9.47723827 -8.56856452 4.50236792 -2.6875 1.0625 C-1.800625 0.711875 -0.91375 0.36125 0 0 Z " fill="#6700D1" transform="translate(117,527)"/>
<path d="M0 0 C1.1055189 0.93590504 2.20935453 1.87379858 3.3125 2.8125 C3.92738281 3.33457031 4.54226563 3.85664062 5.17578125 4.39453125 C6.85424679 5.87172469 8.43882034 7.40039131 10 9 C9.67 9.66 9.34 10.32 9 11 C4.78220697 9.49364535 3.2252326 6.75987578 1 3 C0.67 2.01 0.34 1.02 0 0 Z " fill="#6800CE" transform="translate(289,576)"/>
<path d="M0 0 C4.82675589 2.41337795 7.69984002 5.86062408 11 10 C10.38511719 9.68933594 9.77023437 9.37867187 9.13671875 9.05859375 C7.7141665 8.35381924 6.2717023 7.68787241 4.8125 7.0625 C3 6 3 6 2 3 C1.34 2.67 0.68 2.34 0 2 C0 1.34 0 0.68 0 0 Z " fill="#6600CF" transform="translate(481,115)"/>
<path d="M0 0 C1.0326802 2.78823655 1.04509293 3.8677274 0.0625 6.75 C-0.288125 7.4925 -0.63875 8.235 -1 9 C-3 6 -3 6 -2.75 3.375 C-2.5025 2.59125 -2.255 1.8075 -2 1 C-1.34 0.67 -0.68 0.34 0 0 Z " fill="#5A00B5" transform="translate(568,391)"/>
<path d="M0 0 C1.32 0.66 2.64 1.32 4 2 C3.67 3.65 3.34 5.3 3 7 C1.68 5.68 0.36 4.36 -1 3 C-0.67 2.01 -0.34 1.02 0 0 Z " fill="#5900BB" transform="translate(734,618)"/>
<path d="M0 0 C0.99 0.33 1.98 0.66 3 1 C3.33 1.99 3.66 2.98 4 4 C2.68 4.99 1.36 5.98 0 7 C0 4.69 0 2.38 0 0 Z " fill="#6000BE" transform="translate(489,526)"/>
<path d="M0 0 C1.46726798 3.81489674 0.43336419 6.29011622 -1 10 C-1.33 9.34 -1.66 8.68 -2 8 C-2.66 7.67 -3.32 7.34 -4 7 C-3.525625 6.21625 -3.05125 5.4325 -2.5625 4.625 C-1.66101977 3.11051322 -0.78820515 1.5764103 0 0 Z " fill="#0D061B" transform="translate(623,524)"/>
</svg>
